<svg xmlns="http://www.w3.org/2000/svg" width="512" height="512" fill="none">
  <path id="name" d="M97.681 390.926C82.581 429.178 90.926 496 90.926 496s-13.38-63.758-12.546-105.074c.714-35.344-1.274-56.354 10.616-89.651 9.236-25.864 16.696-39.93 35.707-59.767 20.204-21.082 35.755-28.137 64.66-35.667 28.445-7.41 75.275-3.856 75.275-3.856h82.995c40.533 0 48.408-5.414 54.044-14.46 6.771-10.866 6.086-21.511 0-32.775-5.37-9.939-14.476-17.352-54.044-17.352H112.157L6 41h382.166c55.009 0 74.553 20.124 92.647 43.38 21.136 27.166 25.963 49.47 25.091 83.866-.808 31.898-5.333 52.046-25.091 77.118-18.105 22.975-30.883 31.704-63.695 39.416-32.812 7.712-89.751 3-89.751 3s-56.867 0-92.646 1.928c-34.532 1.86-55.255 8.292-82.996 28.919-28.297 21.041-41.103 39.519-54.044 72.299Z"/>
  <path fill="url(#a)" d="M239.284 371.98c6.942.001 12.17 1.59 15.683 4.768 3.597 3.095 5.395 7.696 5.395 13.802v18.82c0 6.19-1.798 10.874-5.395 14.053-3.513 3.178-8.741 4.767-15.683 4.767h-16.939v-56.21h16.939Z"/>
  <path fill="url(#b)" fill-rule="evenodd" d="M464.936 311c9.424 0 17.063 7.871 17.063 17.579v131.842c0 9.708-7.639 17.579-17.063 17.579H122.77c-6.949 0-12.267 0-15.584-10.422s.642-47.073 7.905-66.047c11.441-29.888 25.764-45.736 50.781-64.921 21.848-16.754 42.138-21.055 66.91-25.61h232.154Zm-29.013 44.042c-7.026 0-11.627 2.886-13.801 8.657l-21.582 59.85-1.505-.628 3.137-8.532-18.068-50.69c-2.008-5.771-6.608-8.657-13.802-8.657-1.338 0-2.802.209-4.391.627-1.506.335-2.719.753-3.639 1.255l31.87 82.057c1.506 4.099 4.517 6.148 9.033 6.148 4.517 0 7.529-2.049 9.034-6.148l31.745-82.057c-.921-.502-2.176-.92-3.765-1.255-1.506-.418-2.927-.627-4.266-.627Zm-222.738 1.129c-2.593 0-4.809.795-6.649 2.384-1.757 1.589-2.635 3.597-2.635 6.022v71.017c0 2.425.878 4.433 2.635 6.022 1.84 1.589 4.056 2.384 6.649 2.384h27.353c7.444 0 14.052-1.464 19.824-4.392 5.855-2.927 10.372-7.026 13.551-12.296 3.262-5.353 4.893-11.417 4.893-18.193v-18.318c0-6.776-1.631-12.798-4.893-18.068-3.179-5.269-7.654-9.327-13.425-12.171-5.772-2.927-12.422-4.391-19.95-4.391h-27.353Zm86.139 0c-2.593 0-4.81.837-6.651 2.51-1.756 1.589-2.634 3.554-2.634 5.896v71.017c0 2.425.878 4.433 2.634 6.022 1.841 1.589 4.058 2.384 6.651 2.384h58.594c0-5.521-.92-9.536-2.76-12.045-1.841-2.509-4.769-3.765-8.784-3.765h-37.891v-20.577h21.204c4.099 0 7.069-1.254 8.909-3.763 1.84-2.51 2.76-6.525 2.76-12.045h-32.873V371.98h35.257c4.098 0 7.068-1.255 8.908-3.764 1.84-2.51 2.761-6.524 2.761-12.045h-56.085Z" clip-rule="evenodd"/><defs><linearGradient id="a" x1="106" x2="481.999" y1="394.5" y2="394.5" gradientUnits="userSpaceOnUse"><stop stop-color="#030712"/><stop offset="1" stop-color="#C6005C"/></linearGradient><linearGradient id="b" x1="106" x2="481.999" y1="394.5" y2="394.5" gradientUnits="userSpaceOnUse"><stop stop-color="#030712"/><stop offset="1" stop-color="#C6005C"/></linearGradient></defs>
  <style>
        path#name { fill: #000; }
        @media (prefers-color-scheme: dark) {
            path#name { fill: #FFF; }
        }
    </style>
</svg>